<svg xmlns="http://www.w3.org/2000/svg" width="224" height="224" viewBox="0 0 224 224">
    <defs>
        <style>
            .cls-1{fill:#fff}.cls-2{fill:none}
        </style>
    </defs>
    <g id="그룹_118" data-name="그룹 118" transform="translate(-360 -2165)">
        <g id="그룹_115" data-name="그룹 115" transform="translate(-628.66 1370.454)">
            <path id="패스_168" d="M1082.124 912.543a24.533 24.533 0 1 1 24.534-24.534 24.56 24.56 0 0 1-24.534 24.534zm0-46.414a21.881 21.881 0 1 0 21.882 21.88 21.906 21.906 0 0 0-21.882-21.88z" class="cls-1" data-name="패스 168" transform="translate(18.472 18.473)"/>
            <path id="패스_169" d="M1046.4 895.818a12.872 12.872 0 1 1 12.873-12.873 12.888 12.888 0 0 1-12.873 12.873zm0-23.093a10.221 10.221 0 1 0 10.221 10.22 10.233 10.233 0 0 0-10.221-10.22z" class="cls-1" data-name="패스 169" transform="translate(0 23.537)"/>
            <path id="패스_170" d="M1107.712 895.818a12.872 12.872 0 1 1 12.874-12.873 12.887 12.887 0 0 1-12.874 12.873zm0-23.093a10.221 10.221 0 1 0 10.222 10.22 10.233 10.233 0 0 0-10.222-10.22z" class="cls-1" data-name="패스 170" transform="translate(47.074 23.537)"/>
            <path id="패스_171" d="M1077.059 865.163a12.872 12.872 0 1 1 12.871-12.872 12.886 12.886 0 0 1-12.871 12.872zm0-23.093a10.221 10.221 0 1 0 10.22 10.221 10.232 10.232 0 0 0-10.22-10.221z" class="cls-1" data-name="패스 171" transform="translate(23.537)"/>
            <path id="패스_172" d="M1077.059 926.471a12.871 12.871 0 1 1 12.871-12.871 12.887 12.887 0 0 1-12.871 12.871zm0-23.091a10.22 10.22 0 1 0 10.22 10.22 10.231 10.231 0 0 0-10.22-10.22z" class="cls-1" data-name="패스 172" transform="translate(23.537 47.075)"/>
            <path id="패스_173" d="M1055.379 874.143a12.873 12.873 0 1 1 9.1-3.771 12.787 12.787 0 0 1-9.1 3.771zm0-23.095a10.222 10.222 0 1 0 7.227 2.995 10.152 10.152 0 0 0-7.227-2.995z" class="cls-1" data-name="패스 173" transform="translate(6.897 6.893)"/>
            <path id="패스_174" d="M1098.737 917.487a12.865 12.865 0 1 1 9.1-3.765 12.833 12.833 0 0 1-9.1 3.765zm0-23.088a10.221 10.221 0 1 0 7.227 17.447 10.22 10.22 0 0 0-7.227-17.447z" class="cls-1" data-name="패스 174" transform="translate(40.18 40.182)"/>
            <path id="패스_175" d="M1098.735 874.141a12.873 12.873 0 1 1 9.1-3.771 12.79 12.79 0 0 1-9.1 3.771zm0-23.095a10.225 10.225 0 1 0 7.227 2.995 10.151 10.151 0 0 0-7.227-2.995z" class="cls-1" data-name="패스 175" transform="translate(40.18 6.895)"/>
            <path id="패스_176" d="M1055.382 917.494a12.787 12.787 0 0 1-9.1-3.771 12.868 12.868 0 1 1 9.1 3.771zm0-23.093a10.22 10.22 0 0 0-7.227 17.447 10.22 10.22 0 1 0 7.227-17.447z" class="cls-1" data-name="패스 176" transform="translate(6.894 40.181)"/>
            <path id="패스_177" d="M1073.434 887.931l-7.276-7.778a1.326 1.326 0 0 1 1.938-1.812l5.4 5.774 10.08-10.078a1.326 1.326 0 1 1 1.875 1.876z" class="cls-1" data-name="패스 177" transform="translate(24.776 26.282)"/>
            <path id="패스_178" d="M1059.023 879.256h-11.1a1.326 1.326 0 1 1 0-2.652h11.1a1.326 1.326 0 1 1 0 2.652z" class="cls-1" data-name="패스 178" transform="translate(10.03 28.552)"/>
            <path id="패스_179" d="M1100.888 879.256h-11.1a1.326 1.326 0 1 1 0-2.652h11.1a1.326 1.326 0 1 1 0 2.652z" class="cls-1" data-name="패스 179" transform="translate(42.175 28.552)"/>
            <path id="패스_180" d="M1071.994 866.286a1.326 1.326 0 0 1-1.326-1.326v-11.1a1.326 1.326 0 1 1 2.652 0v11.1a1.326 1.326 0 0 1-1.326 1.326z" class="cls-1" data-name="패스 180" transform="translate(28.514 10.068)"/>
            <path id="패스_181" d="M1071.994 908.151a1.326 1.326 0 0 1-1.326-1.326v-11.1a1.326 1.326 0 1 1 2.652 0v11.1a1.326 1.326 0 0 1-1.326 1.326z" class="cls-1" data-name="패스 181" transform="translate(28.514 42.213)"/>
            <path id="패스_182" d="M1084.575 870.084a1.325 1.325 0 0 1-.937-2.263l7.849-7.851a1.326 1.326 0 0 1 1.875 1.874l-7.851 7.853a1.321 1.321 0 0 1-.936.387z" class="cls-1" data-name="패스 182" transform="translate(38.174 15.482)"/>
            <path id="패스_183" d="M1054.972 899.687a1.326 1.326 0 0 1-.939-2.263l7.851-7.851a1.326 1.326 0 0 1 1.874 1.876l-7.849 7.849a1.318 1.318 0 0 1-.937.389z" class="cls-1" data-name="패스 183" transform="translate(15.443 38.212)"/>
            <path id="패스_184" d="M1062.822 870.084a1.322 1.322 0 0 1-.937-.387l-7.851-7.853a1.326 1.326 0 0 1 1.876-1.874l7.849 7.851a1.325 1.325 0 0 1-.937 2.263z" class="cls-1" data-name="패스 184" transform="translate(15.443 15.482)"/>
            <path id="패스_185" d="M1092.424 899.687a1.318 1.318 0 0 1-.937-.389l-7.849-7.849a1.326 1.326 0 0 1 1.874-1.876l7.851 7.851a1.326 1.326 0 0 1-.939 2.263z" class="cls-1" data-name="패스 185" transform="translate(38.174 38.212)"/>
        </g>
        <path id="사각형_106" d="M0 0h224v224H0z" class="cls-2" data-name="사각형 106" transform="translate(360 2165)"/>
    </g>
</svg>
