<svg xmlns="http://www.w3.org/2000/svg" width="224" height="224" viewBox="0 0 224 224">
    <defs>
        <style>
            .cls-1{fill:none}.cls-2{fill:#fff}
        </style>
    </defs>
    <g id="그룹_119" data-name="그룹 119" transform="translate(-970 -2165)">
        <path id="사각형_105" d="M0 0h224v224H0z" class="cls-1" data-name="사각형 105" transform="translate(970 2165)"/>
        <path id="패스_167" d="M989.842 930.533a19.244 19.244 0 0 1-4.761-.6 3.329 3.329 0 0 1-1.527-5.568l4.916-4.916a4.6 4.6 0 0 0 1.491-4.637 5.905 5.905 0 0 0-4-4.034 4.565 4.565 0 0 0-4.617 1.382l-4.919 4.921a3.329 3.329 0 0 1-5.568-1.519 19.088 19.088 0 0 1 5.666-18.939 19.425 19.425 0 0 1 19.315-4.426l14.309-14.309-15.315-15.318-6.587-2.8a3.339 3.339 0 0 1-1.372-1.1l-10.435-14.428a3.331 3.331 0 0 1 .387-4.331l2.824-2.713a3.3 3.3 0 0 1 4.22-.312l14.459 10.306a3.29 3.29 0 0 1 1.114 1.377l2.92 6.757 15.2 15.147 13.8-13.8a19 19 0 0 1 4.176-19.037 19.477 19.477 0 0 1 19.155-5.793 3.328 3.328 0 0 1 1.5 5.6l-5.037 4.913a4.54 4.54 0 0 0-1.367 4.6 5.91 5.91 0 0 0 4.034 4 4.579 4.579 0 0 0 4.619-1.473l4.931-4.934a3.329 3.329 0 0 1 5.571 1.527 19.455 19.455 0 0 1-5.738 19.124 19.2 19.2 0 0 1-19.24 4.24l-13.646 13.791.944.949.972-.972a5.477 5.477 0 0 1 7.748 7.745l-.144.145a8 8 0 0 1 9.109 1.248l16.251 16.244a7.9 7.9 0 0 1 .049 10.869l-6.732 6.734a7.249 7.249 0 0 1-5.664 2.319 7.357 7.357 0 0 1-5.305-2.373l-16.148-16.151a7.31 7.31 0 0 1-2.319-5.256 7.653 7.653 0 0 1 .933-3.817l-.057.054a5.478 5.478 0 0 1-7.748-7.748l1.6-1.511-1.068-1.068-14.3 14.3a19.219 19.219 0 0 1-4.235 19.246 19.569 19.569 0 0 1-14.364 6.345zm-2.85-4.134a15.718 15.718 0 0 0 17.687-20.509 3.289 3.289 0 0 1 .771-3.422l14.951-14.954a3.318 3.318 0 0 1 4.681 0l1.867 1.87a3.313 3.313 0 0 1-.067 4.751l-1.976 1.865a1.709 1.709 0 0 0 .118 2.321 1.675 1.675 0 0 0 2.2-.083l10.022-10.023a1.61 1.61 0 0 0-2.277-2.277l-3.706 3.709-4.073-4.075a3.318 3.318 0 0 1-.013-4.671l14.294-14.446a3.3 3.3 0 0 1 3.433-.784 15.715 15.715 0 0 0 20.5-17.688l-4.214 4.214a8.487 8.487 0 0 1-8.344 2.5 9.668 9.668 0 0 1-6.793-6.724 8.473 8.473 0 0 1 2.38-8.367l4.33-4.222a15.421 15.421 0 0 0-14.379 4.872 15.2 15.2 0 0 0-3.265 15.467 3.292 3.292 0 0 1-.766 3.433l-14.446 14.444a3.321 3.321 0 0 1-4.681 0l-15.712-15.715a3.307 3.307 0 0 1-.7-1.032l-2.855-6.608-13.952-9.945-2.146 2.063 10.064 13.909 6.618 2.86a3.243 3.243 0 0 1 1.029.7l15.712 15.712a3.31 3.31 0 0 1 0 4.684l-14.959 14.959a3.275 3.275 0 0 1-3.394.779 15.605 15.605 0 0 0-15.761 3.482 15.3 15.3 0 0 0-4.774 14.2l4.222-4.219a8.48 8.48 0 0 1 8.367-2.381 9.667 9.667 0 0 1 6.724 6.8 8.509 8.509 0 0 1-2.517 8.362zm56.5-32.35a3.758 3.758 0 0 0-2.68 1.075l-6.68 6.68a3.914 3.914 0 0 0-1.187 2.855 3.516 3.516 0 0 0 1.135 2.543l16.254 16.254a3.575 3.575 0 0 0 2.592 1.186 3.631 3.631 0 0 0 2.858-1.186l6.68-6.68a3.987 3.987 0 0 0 0-5.45l-16.2-16.2a4.071 4.071 0 0 0-2.764-1.077zm-12.029-37.062z" class="cls-2" data-name="패스 167" transform="translate(61.988 1395.983)"/>
    </g>
</svg>
