<svg xmlns="http://www.w3.org/2000/svg" width="126.783" height="72.682" viewBox="0 0 126.783 72.682">
    <defs>
        <style>
            .cls-1{fill:#fff}.cls-2{fill:#06f}
        </style>
    </defs>
    <g id="자신만의_웹앱없는분" data-name="자신만의 웹앱없는분" transform="translate(-804 -662)">
        <path id="패스_33" d="M895 723.236h-85.277a5.73 5.73 0 0 1-5.723-5.723v-49.79a5.73 5.73 0 0 1 5.723-5.723H895a5.73 5.73 0 0 1 5.723 5.723v49.79a5.73 5.73 0 0 1-5.723 5.723zm-85.273-58.947a3.437 3.437 0 0 0-3.434 3.434v49.79a3.437 3.437 0 0 0 3.434 3.434H895a3.437 3.437 0 0 0 3.434-3.434v-49.79a3.437 3.437 0 0 0-3.434-3.434z" class="cls-1" data-name="패스 33"/>
        <g id="그룹_9" data-name="그룹 9" transform="translate(872.676 676.308)">
            <rect id="사각형_21" width="56.086" height="40.633" class="cls-2" data-name="사각형 21" rx="8" transform="rotate(-90 29.188 28.042)"/>
            <path id="패스_34" d="M961.2 745.375h-31.477a5.73 5.73 0 0 1-5.723-5.723v-46.929a5.73 5.73 0 0 1 5.723-5.723H961.2a5.73 5.73 0 0 1 5.723 5.723v46.929a5.73 5.73 0 0 1-5.723 5.723zm-31.477-56.086a3.437 3.437 0 0 0-3.434 3.434v46.929a3.437 3.437 0 0 0 3.434 3.434H961.2a3.437 3.437 0 0 0 3.434-3.434v-46.929a3.437 3.437 0 0 0-3.434-3.434z" class="cls-1" data-name="패스 34" transform="translate(-924 -687)"/>
        </g>
        <g id="그룹_10" data-name="그룹 10" transform="translate(906.734 692.904)">
            <rect id="사각형_22" width="39.489" height="21.759" class="cls-2" data-name="사각형 22" rx="5.766" transform="rotate(-90 20.889 19.744)"/>
            <path id="패스_35" d="M1003.115 757.778h-15.16a4.449 4.449 0 0 1-4.444-4.445v-32.889a4.449 4.449 0 0 1 4.444-4.444h15.16a4.449 4.449 0 0 1 4.444 4.444v32.889a4.449 4.449 0 0 1-4.444 4.445zm-15.16-39.489a2.157 2.157 0 0 0-2.155 2.155v32.889a2.157 2.157 0 0 0 2.155 2.155h15.16a2.157 2.157 0 0 0 2.155-2.155v-32.889a2.157 2.157 0 0 0-2.155-2.155z" class="cls-1" data-name="패스 35" transform="translate(-983.511 -716)"/>
        </g>
        <g id="그룹_11" data-name="그룹 11" transform="translate(833.76 720.947)">
            <path id="패스_36" d="M880.32 772.562v-4.829a.733.733 0 0 0-.733-.733h-8.835a.733.733 0 0 0-.733.733v4.829a.733.733 0 0 1-.733.733h-10.553a.733.733 0 0 0-.733.733v3.684a.733.733 0 0 0 .733.733h33.444a.733.733 0 0 0 .733-.733v-3.684a.733.733 0 0 0-.733-.733h-11.124a.733.733 0 0 1-.733-.733z" class="cls-2" data-name="패스 36" transform="translate(-856.855 -765.855)"/>
            <path id="패스_37" d="M891.322 778.735h-33.444a1.88 1.88 0 0 1-1.878-1.877v-3.685a1.88 1.88 0 0 1 1.878-1.878h10.141v-4.418A1.88 1.88 0 0 1 869.9 765h8.835a1.88 1.88 0 0 1 1.878 1.878v4.422h10.713a1.88 1.88 0 0 1 1.878 1.878v3.685a1.88 1.88 0 0 1-1.882 1.872zm-33.033-2.289h32.621v-2.862H880.2a1.88 1.88 0 0 1-1.878-1.878v-4.418h-8.012v4.418a1.88 1.88 0 0 1-1.878 1.878h-10.143z" class="cls-1" data-name="패스 37" transform="translate(-856 -765)"/>
        </g>
        <path id="패스_38" d="M834.789 704.725h-14.3a1.987 1.987 0 0 1-1.985-1.985v-25.168a1.987 1.987 0 0 1 1.985-1.985h14.3a1.987 1.987 0 0 1 1.985 1.985v25.167a1.987 1.987 0 0 1-1.985 1.986zm-14-2.289h13.7v-24.56h-13.7z" class="cls-1" data-name="패스 38" transform="translate(-6.202 -5.811)"/>
        <path id="패스_39" d="M850.049 738.289h-30.9a1.145 1.145 0 1 1 0-2.289h30.9a1.145 1.145 0 1 1 0 2.289z" class="cls-1" data-name="패스 39" transform="translate(-5.988 -31.65)"/>
        <path id="패스_40" d="M856.917 752.289h-37.772a1.145 1.145 0 1 1 0-2.289h37.772a1.145 1.145 0 0 1 0 2.289z" class="cls-1" data-name="패스 40" transform="translate(-5.988 -37.637)"/>
        <path id="패스_41" d="M955.938 704.289h-17.793a1.145 1.145 0 1 1 0-2.289h17.793a1.145 1.145 0 0 1 0 2.289z" class="cls-1" data-name="패스 41" transform="translate(-56.884 -17.108)"/>
        <path id="패스_42" d="M1004.591 729.289h-11.446a1.145 1.145 0 1 1 0-2.289h11.446a1.145 1.145 0 0 1 0 2.289z" class="cls-1" data-name="패스 42" transform="translate(-80.407 -27.8)"/>
        <path id="패스_43" d="M959.892 718.289h-21.747a1.145 1.145 0 1 1 0-2.289h21.747a1.145 1.145 0 1 1 0 2.289z" class="cls-1" data-name="패스 43" transform="translate(-56.884 -23.096)"/>
        <path id="패스_44" d="M959.892 732.289h-21.747a1.145 1.145 0 1 1 0-2.289h21.747a1.145 1.145 0 1 1 0 2.289z" class="cls-1" data-name="패스 44" transform="translate(-56.884 -29.083)"/>
        <circle id="타원_2" cx="2.289" cy="2.289" r="2.289" class="cls-1" data-name="타원 2" transform="translate(891.562 725.526)"/>
        <circle id="타원_3" cx="2.289" cy="2.289" r="2.289" class="cls-1" data-name="타원 3" transform="translate(916.744 725.526)"/>
    </g>
</svg>
