<svg xmlns="http://www.w3.org/2000/svg" width="139.51" height="72.763" viewBox="0 0 139.51 72.763">
    <defs>
        <style>
            .cls-1{fill:#fff}.cls-2{fill:#06f}
        </style>
    </defs>
    <g id="그룹_33" data-name="그룹 33" transform="translate(-973.464 -732)">
        <g id="그룹_27" data-name="그룹 27" transform="translate(973.464 733.347)">
            <path id="패스_58" d="M1071.642 793.169h-83.786a5.63 5.63 0 0 1-5.623-5.624v-48.922a5.629 5.629 0 0 1 5.623-5.623h83.786a5.629 5.629 0 0 1 5.623 5.623v48.922a5.63 5.63 0 0 1-5.623 5.624zm-83.786-57.92a3.377 3.377 0 0 0-3.374 3.374v48.922a3.377 3.377 0 0 0 3.374 3.374h83.786a3.377 3.377 0 0 0 3.374-3.374v-48.922a3.377 3.377 0 0 0-3.374-3.374z" class="cls-1" data-name="패스 58" transform="translate(-970.417 -733)"/>
            <g id="그룹_24" data-name="그룹 24" transform="translate(41.056 57.919)">
                <path id="패스_59" d="M1026.7 782.284v-4.744a.721.721 0 0 0-.721-.721h-8.68a.72.72 0 0 0-.721.721v4.744a.721.721 0 0 1-.721.72h-10.367a.721.721 0 0 0-.721.721v3.621a.72.72 0 0 0 .721.72h32.86a.721.721 0 0 0 .721-.72v-3.621a.722.722 0 0 0-.721-.721h-10.93a.72.72 0 0 1-.72-.72z" class="cls-2" data-name="패스 59" transform="translate(-1003.643 -775.694)"/>
                <path id="패스_60" d="M1038.639 789.48h-32.86a1.848 1.848 0 0 1-1.846-1.845v-3.621a1.848 1.848 0 0 1 1.846-1.845h9.963v-4.34a1.848 1.848 0 0 1 1.846-1.846h8.68a1.847 1.847 0 0 1 1.845 1.846v4.34h10.526a1.847 1.847 0 0 1 1.845 1.845v3.621a1.847 1.847 0 0 1-1.845 1.845zm-32.456-2.249h32.052v-2.812h-10.526a1.847 1.847 0 0 1-1.845-1.845v-4.34h-7.872v4.34a1.848 1.848 0 0 1-1.846 1.845h-9.963z" class="cls-1" data-name="패스 60" transform="translate(-1003.933 -775.984)"/>
            </g>
            <path id="패스_61" d="M1004.289 767.3h-14.055a1.952 1.952 0 0 1-1.95-1.95v-24.729a1.952 1.952 0 0 1 1.95-1.951h14.055a1.952 1.952 0 0 1 1.95 1.951v24.729a1.952 1.952 0 0 1-1.95 1.95zm-13.756-2.249h13.457v-24.132h-13.457z" class="cls-1" data-name="패스 61" transform="translate(-968.315 -731.03)"/>
            <path id="패스_62" d="M1019.565 766.131H989.2a1.124 1.124 0 1 1 0-2.249h30.365a1.124 1.124 0 1 1 0 2.249z" class="cls-1" data-name="패스 62" transform="translate(-968.387 -722.27)"/>
            <path id="패스_63" d="M1026.313 771.974H989.2a1.125 1.125 0 1 1 0-2.25h37.113a1.125 1.125 0 1 1 0 2.25z" class="cls-1" data-name="패스 63" transform="translate(-968.387 -720.24)"/>
            <g id="그룹_26" data-name="그룹 26" transform="translate(0 30.365)">
                <g id="그룹_25" data-name="그룹 25">
                    <rect id="사각형_25" width="38.8" height="21.38" class="cls-2" data-name="사각형 25" rx="2.023" transform="rotate(-90 20.526 19.4)"/>
                    <path id="패스_64" d="M992.726 796.585h-14.895a4.372 4.372 0 0 1-4.367-4.367V759.9a4.372 4.372 0 0 1 4.367-4.367h14.895a4.372 4.372 0 0 1 4.367 4.367v32.316a4.372 4.372 0 0 1-4.367 4.369zm-14.895-38.8a2.12 2.12 0 0 0-2.118 2.117v32.316a2.12 2.12 0 0 0 2.118 2.118h14.895a2.12 2.12 0 0 0 2.118-2.118V759.9a2.12 2.12 0 0 0-2.118-2.117z" class="cls-1" data-name="패스 64" transform="translate(-973.464 -755.535)"/>
                </g>
                <path id="패스_65" d="M989.378 762.375h-11.247a1.124 1.124 0 0 1 0-2.249h11.247a1.124 1.124 0 0 1 0 2.249z" class="cls-1" data-name="패스 65" transform="translate(-972.233 -753.94)"/>
                <circle id="타원_5" cx="2.249" cy="2.249" r="2.249" class="cls-1" data-name="타원 5" transform="translate(9.835 32.053)"/>
            </g>
        </g>
        <path id="패스_66" d="M1056.3 742.78l13.471-10.78h9.432l14.822 13.474v25.6l-6.737 6.737-20.212-2.695-10.78 9.432-5.39 4.042s-17.517-2.695-18.864-4.042-4.042-28.3-4.042-28.3 0-13.475 1.348-13.475z" class="cls-2" data-name="패스 66" transform="translate(18.949)"/>
        <g id="그룹_32" data-name="그룹 32" transform="translate(1055.878 734.559)">
            <path id="패스_67" d="M1040.845 750.247a2.339 2.339 0 0 1-2.319 2.319.811.811 0 0 0-.791.79v11.437a.811.811 0 0 0 .791.79 2.339 2.339 0 0 1 2.319 2.319.811.811 0 0 0 .791.791h34.992a.811.811 0 0 0 .791-.791 2.339 2.339 0 0 1 2.319-2.319.81.81 0 0 0 .79-.79v-11.437a.81.81 0 0 0-.79-.79 2.339 2.339 0 0 1-2.319-2.319.811.811 0 0 0-.791-.791h-34.992a.811.811 0 0 0-.791.791zm35.1.791a3.965 3.965 0 0 0 3 3.056v10.013a3.9 3.9 0 0 0-3 3h-33.623a3.894 3.894 0 0 0-3.056-3v-10.012a3.956 3.956 0 0 0 3.056-3.056zm-16.812 13.755a5.745 5.745 0 1 0-5.744-5.746 5.758 5.758 0 0 0 5.743 5.746zm23.715-18.445h-2.265l-2.483-6.848a.762.762 0 0 0-1-.474l-2.107.791-4.743-5.639a.885.885 0 0 0-1.16-.1l-14.387 12.12-.158.159h-19.131a.81.81 0 0 0-.79.79v23.874a.81.81 0 0 0 .79.79h2.266l2.477 6.852a.578.578 0 0 0 .422.422.675.675 0 0 0 .317.052.482.482 0 0 0 .264-.052l2.107-.791 4.69 5.586a.672.672 0 0 0 .579.263.757.757 0 0 0 .527-.21l14.7-12.122h19.077a.81.81 0 0 0 .791-.79v-23.883a.81.81 0 0 0-.784-.79zm-6.007-5.587l2.055 5.587H1061.5zm-7.326-4.955l3.847 4.533-16.337 5.956zm-28.141 41.581l-2-5.587h17.39zm7.379 4.953l-3.848-4.531 16.338-5.956zm33.307-12.12h-45.85v-22.291h45.85z" class="cls-1" data-name="패스 67" transform="translate(-1034.627 -733.899)"/>
            <path id="사각형_26" d="M0 0h14.229v13.175H0z" class="cls-2" data-name="사각형 26" transform="translate(17.444 18.403)"/>
            <g id="그룹_31" data-name="그룹 31" transform="translate(18.524 20.783)">
                <g id="그룹_30" data-name="그룹 30">
                    <g id="그룹_29" data-name="그룹 29">
                        <g id="그룹_28" data-name="그룹 28">
                            <path id="패스_68" d="M1048.374 754.8v-1.261h1.566l-.342-1.222h-1.224v-1.261h.853l-.484-1.729h2.036l.381 1.731h2.049l.345-1.731h2.012l.356 1.731h2.138l.381-1.731h1.947l-.485 1.731h.841v1.26h-1.207l-.344 1.223h1.553v1.26h-1.9l-1.044 3.692h-1.821l-.752-3.692h-1.376l-.737 3.692h-1.783l-1.044-3.692h-1.92zm3.334-1.261h1.032l.229-1.222h-1.528zm.548 2.494l.229-1.234h-.508zm1.859-2.494h.866l-.242-1.222h-.381zm2.315 0h1.068l.267-1.222h-1.589zm.509 2.494l.267-1.234h-.521z" class="cls-1" data-name="패스 68" transform="translate(-1048.374 -749.323)"/>
                        </g>
                    </g>
                </g>
            </g>
        </g>
    </g>
</svg>
