<svg xmlns="http://www.w3.org/2000/svg" width="107.338" height="73.16" viewBox="0 0 107.338 73.16">
    <defs>
        <style>
            .cls-1{fill:#fff}.cls-2{fill:#06f}
        </style>
    </defs>
    <g id="그룹_38" data-name="그룹 38" transform="translate(-975 -661)">
        <path id="패스_69" d="M1073.827 722.639h-85.834a5.768 5.768 0 0 1-5.76-5.762V666.76a5.767 5.767 0 0 1 5.76-5.76h85.833a5.767 5.767 0 0 1 5.76 5.76v50.117a5.768 5.768 0 0 1-5.759 5.762zM987.993 663.3a3.46 3.46 0 0 0-3.457 3.456v50.117a3.46 3.46 0 0 0 3.457 3.456h85.833a3.46 3.46 0 0 0 3.456-3.456V666.76a3.46 3.46 0 0 0-3.456-3.456z" class="cls-1" data-name="패스 69" transform="translate(2.751)"/>
        <g id="그룹_34" data-name="그룹 34" transform="translate(1014.938 720.334)">
            <path id="패스_70" d="M1027.235 710.418v-4.86a.738.738 0 0 0-.739-.739h-8.896a.738.738 0 0 0-.739.739v4.86a.738.738 0 0 1-.738.737h-10.621a.738.738 0 0 0-.738.739v3.706a.737.737 0 0 0 .738.737h33.663a.738.738 0 0 0 .739-.737v-3.709a.739.739 0 0 0-.739-.739h-11.2a.737.737 0 0 1-.73-.734z" class="cls-2" data-name="패스 70" transform="translate(-1003.615 -703.666)"/>
            <path id="패스_71" d="M1039.487 717.81h-33.663a1.893 1.893 0 0 1-1.891-1.89v-3.709a1.893 1.893 0 0 1 1.891-1.89h10.207v-4.446a1.893 1.893 0 0 1 1.891-1.891h8.892a1.892 1.892 0 0 1 1.89 1.891v4.446h10.783a1.892 1.892 0 0 1 1.89 1.89v3.709a1.892 1.892 0 0 1-1.89 1.89zm-33.249-2.3h32.835v-2.881h-10.783a1.892 1.892 0 0 1-1.89-1.89v-4.446h-8.064v4.446a1.893 1.893 0 0 1-1.891 1.89h-10.207z" class="cls-1" data-name="패스 71" transform="translate(-1003.933 -703.984)"/>
        </g>
        <path id="패스_72" d="M1010.183 675.186H987.9c-.455 0-.825-.516-.825-1.151s.37-1.153.825-1.153h22.282c.456 0 .825.516.825 1.153s-.369 1.151-.824 1.151z" class="cls-1" data-name="패스 72" transform="translate(4.593 4.52)"/>
        <path id="패스_73" d="M1015.134 670.029H987.9c-.455 0-.825-.516-.825-1.152s.37-1.153.825-1.153h27.234c.455 0 .825.516.825 1.153s-.37 1.152-.825 1.152z" class="cls-1" data-name="패스 73" transform="translate(4.593 2.558)"/>
        <path id="패스_74" d="M1021.748 692.724h34.076a1.157 1.157 0 1 1 0 2.305h-34.076a1.157 1.157 0 1 1 0-2.305z" class="cls-1" data-name="패스 74" transform="translate(17.302 12.067)"/>
        <path id="패스_75" d="M1016.262 697.882h41.649a1.157 1.157 0 1 1 0 2.3h-41.649a1.157 1.157 0 1 1 0-2.3z" class="cls-1" data-name="패스 75" transform="translate(15.215 14.029)"/>
        <path id="패스_76" d="M1057.962 696.928h-41.182a2.533 2.533 0 0 1-2.53-2.53V669.78a2.533 2.533 0 0 1 2.53-2.53h41.182a2.533 2.533 0 0 1 2.53 2.53v24.62a2.533 2.533 0 0 1-2.53 2.528zm-41.182-27.608a.459.459 0 0 0-.46.46v24.62a.459.459 0 0 0 .46.46h41.182a.46.46 0 0 0 .46-.46v-24.62a.46.46 0 0 0-.46-.46z" class="cls-1" data-name="패스 76" transform="translate(14.93 2.377)"/>
        <g id="그룹_37" data-name="그룹 37" transform="translate(975 685.847)">
            <circle id="타원_6" cx="21.396" cy="21.396" r="21.396" class="cls-2" data-name="타원 6"/>
            <g id="그룹_36" data-name="그룹 36" transform="translate(2.518 2.518)">
                <g id="그룹_35" data-name="그룹 35">
                    <path id="패스_77" d="M995.7 680.824a18.878 18.878 0 1 0 18.88 18.876 18.907 18.907 0 0 0-18.88-18.876zm14.138 27.058a19.024 19.024 0 0 0-3.65-.838c-.5-.084-1.049-.127-1.594-.21a33.3 33.3 0 0 0 .714-6.336h6.713a15.67 15.67 0 0 1-2.181 7.384zm-12.167 8.056a10.415 10.415 0 0 1-1.132.084v-7.887c2.265 0 4.236.084 5.958.251-1.09 3.65-2.81 6.414-4.824 7.552zm-8.768-7.594c1.721-.126 3.693-.21 5.958-.253v7.888a10.073 10.073 0 0 1-1.132-.084c-2.012-1.095-3.729-3.859-4.824-7.55zm-9.523-7.8h6.713a33.3 33.3 0 0 0 .714 6.335 17.96 17.96 0 0 0-1.594.21 16.316 16.316 0 0 0-3.65.839 15.968 15.968 0 0 1-2.181-7.387zm2.182-9.019a19.019 19.019 0 0 0 3.65.838c.5.084 1.049.127 1.594.21a33.313 33.313 0 0 0-.714 6.336h-6.713a15.671 15.671 0 0 1 2.185-7.387zm12.167-8.056a10.43 10.43 0 0 1 1.132-.084v7.888c-2.265 0-4.236-.084-5.958-.251 1.097-3.654 2.814-6.422 4.828-7.556zm8.768 7.594c-1.721.126-3.693.21-5.958.253v-7.93a10.43 10.43 0 0 1 1.132.084c2.016 1.13 3.736 3.898 4.829 7.59zm-5.958 1.888c2.265 0 4.446-.126 6.376-.251a31.43 31.43 0 0 1 .756 6.166h-7.132zm-1.678 0v5.915h-7.131a31.43 31.43 0 0 1 .756-6.166c1.931.122 4.114.248 6.377.248zm-7.132 7.593h7.132v5.915c-2.265 0-4.446.126-6.376.251a34.925 34.925 0 0 1-.755-6.169zm8.811 5.915v-5.915h7.132a31.431 31.431 0 0 1-.756 6.166c-1.929-.128-4.109-.254-6.375-.254zm8.81-7.593a33.292 33.292 0 0 0-.712-6.335 17.84 17.84 0 0 0 1.593-.21 16.351 16.351 0 0 0 3.651-.839 16.3 16.3 0 0 1 2.181 7.342h-6.713zm3.567-8.81a28.825 28.825 0 0 1-4.7.839 18.436 18.436 0 0 0-3.189-6.629 16.554 16.554 0 0 1 7.89 5.787zm-18.544-5.832a18.792 18.792 0 0 0-3.189 6.629 21.712 21.712 0 0 1-4.7-.839 17.129 17.129 0 0 1 7.89-5.793zm-7.887 25.13a28.841 28.841 0 0 1 4.7-.839 18.433 18.433 0 0 0 3.189 6.629 16.555 16.555 0 0 1-7.889-5.793zm18.544 5.832a18.794 18.794 0 0 0 3.189-6.629 21.718 21.718 0 0 1 4.7.839 17.128 17.128 0 0 1-7.889 5.787z" class="cls-1" data-name="패스 77" transform="translate(-976.824 -680.824)"/>
                </g>
            </g>
        </g>
    </g>
</svg>
