<svg xmlns="http://www.w3.org/2000/svg" width="135.117" height="67.08" viewBox="0 0 135.117 67.08">
    <defs>
        <style>
            .cls-1{fill:#fff}.cls-2{fill:#06f}
        </style>
    </defs>
    <g id="그룹_23" data-name="그룹 23" transform="translate(-970.246 -826.08)">
        <path id="패스_55" d="M981.592 888.735a11.143 11.143 0 0 1-2.757-.348 1.927 1.927 0 0 1-.884-3.224l2.846-2.846a2.664 2.664 0 0 0 .863-2.685 3.419 3.419 0 0 0-2.313-2.336 2.643 2.643 0 0 0-2.673.8l-2.848 2.849a1.928 1.928 0 0 1-3.224-.88 11.051 11.051 0 0 1 3.281-10.965 11.247 11.247 0 0 1 11.183-2.563l8.285-8.285-8.867-8.869-3.814-1.622a1.931 1.931 0 0 1-.794-.636l-6.042-8.354a1.929 1.929 0 0 1 .224-2.507l1.635-1.571a1.911 1.911 0 0 1 2.443-.181l8.371 5.967a1.9 1.9 0 0 1 .645.8l1.69 3.912 8.8 8.77 7.989-7.991a11 11 0 0 1 2.418-11.022 11.277 11.277 0 0 1 11.091-3.354 1.927 1.927 0 0 1 .868 3.242l-2.916 2.845a2.628 2.628 0 0 0-.792 2.661 3.422 3.422 0 0 0 2.336 2.313 2.651 2.651 0 0 0 2.675-.853l2.855-2.857a1.927 1.927 0 0 1 3.225.884 11.264 11.264 0 0 1-3.323 11.073 11.116 11.116 0 0 1-11.14 2.455l-7.9 7.985.547.55.563-.563a3.171 3.171 0 0 1 4.486 4.484l-.084.084a4.633 4.633 0 0 1 5.274.723l9.412 9.409a4.576 4.576 0 0 1 .028 6.293l-3.9 3.9a4.2 4.2 0 0 1-3.279 1.343 4.26 4.26 0 0 1-3.072-1.374l-9.353-9.351a4.233 4.233 0 0 1-1.343-3.043 4.431 4.431 0 0 1 .541-2.21l-.033.031a3.172 3.172 0 0 1-4.486-4.486l.927-.875-.618-.618-8.28 8.282a11.128 11.128 0 0 1-2.452 11.143 11.33 11.33 0 0 1-8.314 3.671zm-1.65-2.394a9.1 9.1 0 0 0 10.241-11.875 1.9 1.9 0 0 1 .447-1.982l8.657-8.658a1.921 1.921 0 0 1 2.71 0l1.081 1.083a1.919 1.919 0 0 1-.039 2.751l-1.145 1.08a.99.99 0 0 0 .069 1.344.97.97 0 0 0 1.274-.048l5.8-5.8a.932.932 0 0 0-1.319-1.319l-2.146 2.147-2.358-2.359a1.921 1.921 0 0 1-.007-2.7l8.276-8.364a1.912 1.912 0 0 1 1.988-.454 9.1 9.1 0 0 0 11.872-10.241l-2.44 2.44a4.914 4.914 0 0 1-4.831 1.447 5.6 5.6 0 0 1-3.933-3.893 4.906 4.906 0 0 1 1.378-4.844l2.507-2.445a8.929 8.929 0 0 0-8.325 2.821 8.8 8.8 0 0 0-1.891 8.955 1.906 1.906 0 0 1-.443 1.988L999 855.773a1.922 1.922 0 0 1-2.71 0l-9.1-9.1a1.912 1.912 0 0 1-.4-.6l-1.653-3.826-8.079-5.76-1.242 1.195 5.827 8.053 3.832 1.656a1.879 1.879 0 0 1 .6.4l9.1 9.1a1.916 1.916 0 0 1 0 2.712l-8.661 8.661a1.9 1.9 0 0 1-1.965.451 9.035 9.035 0 0 0-9.126 2.016 8.862 8.862 0 0 0-2.764 8.219l2.445-2.443a4.91 4.91 0 0 1 4.844-1.378 5.6 5.6 0 0 1 3.893 3.935 4.927 4.927 0 0 1-1.457 4.841zm32.716-18.731a2.176 2.176 0 0 0-1.552.623l-3.868 3.868a2.266 2.266 0 0 0-.687 1.653 2.036 2.036 0 0 0 .657 1.472l9.411 9.411a2.069 2.069 0 0 0 1.5.687 2.1 2.1 0 0 0 1.655-.687l3.868-3.868a2.308 2.308 0 0 0 0-3.156l-9.381-9.381a2.357 2.357 0 0 0-1.603-.621zm-6.965-21.459z" class="cls-1" data-name="패스 55" transform="translate(0 2.551)"/>
        <g id="그룹_22" data-name="그룹 22" transform="translate(1039.915 826.08)">
            <path id="패스_56" d="M1025.2 847.909a3.125 3.125 0 0 1-3.1 3.1 1.083 1.083 0 0 0-1.056 1.056v15.271a1.083 1.083 0 0 0 1.056 1.056 3.124 3.124 0 0 1 3.1 3.1 1.083 1.083 0 0 0 1.056 1.056h46.727a1.083 1.083 0 0 0 1.056-1.056 3.123 3.123 0 0 1 3.1-3.1 1.083 1.083 0 0 0 1.056-1.056v-15.274a1.083 1.083 0 0 0-1.056-1.056 3.124 3.124 0 0 1-3.1-3.1 1.082 1.082 0 0 0-1.056-1.056h-46.723a1.083 1.083 0 0 0-1.06 1.059zm46.868 1.056a5.294 5.294 0 0 0 4.013 4.081v13.371a5.213 5.213 0 0 0-4.013 4.011h-44.9a5.2 5.2 0 0 0-4.081-4.011v-13.37a5.276 5.276 0 0 0 4.081-4.081zm-22.449 18.368a7.67 7.67 0 1 0-7.67-7.671 7.689 7.689 0 0 0 7.674 7.671zm31.669-24.631h-3.027l-3.306-9.148a1.018 1.018 0 0 0-1.338-.633l-2.815 1.054-6.333-7.529a1.181 1.181 0 0 0-1.548-.14l-19.212 16.186-.212.211h-25.545a1.083 1.083 0 0 0-1.056 1.056v31.879a1.083 1.083 0 0 0 1.056 1.056h3.025l3.308 9.148a.765.765 0 0 0 .563.563.9.9 0 0 0 .423.07.64.64 0 0 0 .352-.07l2.815-1.056 6.263 7.459a.894.894 0 0 0 .773.353 1 1 0 0 0 .7-.282l19.634-16.184h25.476a1.083 1.083 0 0 0 1.056-1.056v-31.881a1.083 1.083 0 0 0-1.048-1.058zm-8.022-7.459l2.743 7.459h-23.219zm-9.782-6.615l5.137 6.052-21.816 7.952zm-37.579 55.525l-2.675-7.459h23.224zm9.853 6.615l-5.139-6.052 21.816-7.952zm44.475-16.186h-61.224v-29.768h61.224z" class="cls-1" data-name="패스 56" transform="translate(-1016.9 -826.08)"/>
            <path id="사각형_24" d="M0 0h19.001v17.593H0z" class="cls-2" data-name="사각형 24" transform="translate(23.294 24.575)"/>
            <g id="그룹_21" data-name="그룹 21" transform="translate(24.737 27.752)">
                <g id="그룹_20" data-name="그룹 20">
                    <g id="그룹_19" data-name="그룹 19">
                        <g id="그룹_18" data-name="그룹 18">
                            <path id="패스_57" d="M1033.465 851.972v-1.683h2.091l-.458-1.634h-1.632v-1.683h1.136l-.645-2.309h2.719l.51 2.312h2.737l.461-2.312h2.685l.475 2.312h2.855l.509-2.312h2.6l-.648 2.312h1.123v1.683h-1.613l-.458 1.632h2.074v1.684h-2.533l-1.395 4.93h-2.431l-1-4.93h-1.837l-.986 4.93h-2.379l-1.395-4.93h-2.564zm4.45-1.683h1.378l.306-1.634h-2.04zm.733 3.33l.306-1.649h-.679zm2.482-3.33h1.157l-.323-1.634h-.509zm3.093 0h1.426l.357-1.634h-2.122zm.679 3.33l.357-1.649h-.7z" class="cls-1" data-name="패스 57" transform="translate(-1033.465 -844.664)"/>
                        </g>
                    </g>
                </g>
            </g>
        </g>
    </g>
</svg>
