<svg xmlns="http://www.w3.org/2000/svg" width="135.909" height="72.365" viewBox="0 0 135.909 72.365">
    <defs>
        <style>
            .cls-1{fill:#fff}.cls-2{fill:#06f}
        </style>
    </defs>
    <g id="그룹_17" data-name="그룹 17" transform="translate(-828.464 -829)">
        <g id="그룹_16" data-name="그룹 16" transform="translate(828.464 829)">
            <path id="패스_45" d="M927.831 889.969h-84.9a5.705 5.705 0 0 1-5.7-5.7V834.7a5.7 5.7 0 0 1 5.7-5.7h84.9a5.7 5.7 0 0 1 5.7 5.7v49.57a5.705 5.705 0 0 1-5.7 5.699zm-84.9-58.691a3.422 3.422 0 0 0-3.419 3.419v49.573a3.422 3.422 0 0 0 3.419 3.419h84.9a3.422 3.422 0 0 0 3.419-3.419V834.7a3.422 3.422 0 0 0-3.419-3.419z" class="cls-1" data-name="패스 45" transform="translate(-825.26 -829)"/>
            <g id="그룹_13" data-name="그룹 13" transform="translate(41.602 58.689)">
                <path id="패스_46" d="M881.991 878.357v-4.807a.731.731 0 0 0-.731-.731h-8.8a.73.73 0 0 0-.73.731v4.807a.73.73 0 0 1-.73.729h-10.5a.731.731 0 0 0-.73.73v3.669a.729.729 0 0 0 .73.729h33.3a.73.73 0 0 0 .73-.729v-3.669a.731.731 0 0 0-.73-.73h-11.08a.729.729 0 0 1-.729-.729z" class="cls-2" data-name="패스 46" transform="translate(-858.628 -871.679)"/>
                <path id="패스_47" d="M894.1 885.66h-33.3a1.872 1.872 0 0 1-1.871-1.869v-3.669a1.872 1.872 0 0 1 1.871-1.869h10.1v-4.4a1.872 1.872 0 0 1 1.87-1.871h8.8a1.871 1.871 0 0 1 1.869 1.871v4.4H894.1a1.871 1.871 0 0 1 1.869 1.869v3.669a1.871 1.871 0 0 1-1.869 1.869zm-32.888-2.279h32.478v-2.849h-10.665a1.871 1.871 0 0 1-1.869-1.869v-4.4h-7.976v4.4a1.872 1.872 0 0 1-1.871 1.869h-10.1z" class="cls-1" data-name="패스 47" transform="translate(-858.933 -871.984)"/>
            </g>
            <path id="패스_48" d="M859.5 863.68h-14.24a1.978 1.978 0 0 1-1.976-1.976v-25.057a1.978 1.978 0 0 1 1.976-1.977h14.24a1.978 1.978 0 0 1 1.976 1.977V861.7a1.978 1.978 0 0 1-1.976 1.98zm-13.937-2.28H859.2v-24.451h-13.637z" class="cls-1" data-name="패스 48" transform="translate(-823.049 -826.928)"/>
            <path id="패스_49" d="M874.984 862.161h-30.769a1.139 1.139 0 1 1 0-2.279h30.769a1.139 1.139 0 1 1 0 2.279z" class="cls-1" data-name="패스 49" transform="translate(-823.126 -817.717)"/>
            <path id="패스_50" d="M881.822 868h-37.607a1.14 1.14 0 0 1 0-2.28h37.607a1.14 1.14 0 1 1 0 2.28z" class="cls-1" data-name="패스 50" transform="translate(-823.126 -815.582)"/>
            <g id="그룹_15" data-name="그룹 15" transform="translate(0 30.769)">
                <g id="그룹_14" data-name="그룹 14">
                    <rect id="사각형_23" width="39.316" height="21.664" class="cls-2" data-name="사각형 23" rx="2.023" transform="rotate(-90 20.799 19.659)"/>
                    <path id="패스_51" d="M847.982 893.131h-15.093a4.43 4.43 0 0 1-4.425-4.425V855.96a4.43 4.43 0 0 1 4.425-4.425h15.093a4.43 4.43 0 0 1 4.425 4.425v32.746a4.43 4.43 0 0 1-4.425 4.425zm-15.093-39.316a2.148 2.148 0 0 0-2.146 2.145v32.746a2.148 2.148 0 0 0 2.146 2.146h15.093a2.148 2.148 0 0 0 2.146-2.146V855.96a2.148 2.148 0 0 0-2.146-2.145z" class="cls-1" data-name="패스 51" transform="translate(-828.464 -851.535)"/>
                </g>
                <path id="패스_52" d="M844.543 858.4h-11.4a1.139 1.139 0 0 1 0-2.279h11.4a1.139 1.139 0 0 1 0 2.279z" class="cls-1" data-name="패스 52" transform="translate(-827.169 -849.858)"/>
                <circle id="타원_4" cx="2.279" cy="2.279" r="2.279" class="cls-1" data-name="타원 4" transform="translate(9.965 32.479)"/>
            </g>
        </g>
        <path id="패스_53" d="M899.109 885.982a12.184 12.184 0 0 1-4.488-.87l-1.64-.649a1.574 1.574 0 0 1-.532-2.577l4.694-4.694c.456-.445.4-.709.3-.942a1.33 1.33 0 0 0-1.061-.822c-.068 0-.279 0-.6.319l-4.689 4.69a1.574 1.574 0 0 1-2.575-.528l-.651-1.629a11.745 11.745 0 0 1 1.185-11.1 12.17 12.17 0 0 1 10.057-5.4 12.04 12.04 0 0 1 1.813.139 1.612 1.612 0 0 0 1.4-.432l3.975-3.975a1.573 1.573 0 0 0 0-2.226l-5.3-5.306a1.579 1.579 0 0 0-.49-.332l-3.427-1.48a1.577 1.577 0 0 1-.651-.522l-6.789-9.384a1.574 1.574 0 0 1 .184-2.056l3.8-3.662a1.572 1.572 0 0 1 2-.147l9.358 6.669a1.57 1.57 0 0 1 .531.657l1.487 3.43a1.592 1.592 0 0 0 .333.489l5.3 5.306a1.574 1.574 0 0 0 2.226 0l3.693-3.692a1.6 1.6 0 0 0 .425-1.4 11.687 11.687 0 0 1 1.9-8.494 11.99 11.99 0 0 1 14.476-4.493l1.662.657a1.574 1.574 0 0 1 .52 2.59l-4.816 4.7a.711.711 0 0 0-.227.885 1.328 1.328 0 0 0 1.049.814c.071 0 .287 0 .621-.343l4.719-4.719a1.574 1.574 0 0 1 2.577.534l.649 1.638A11.858 11.858 0 0 1 940.9 848.8a12.065 12.065 0 0 1-9.959 5.344 11.917 11.917 0 0 1-1.883-.152 1.613 1.613 0 0 0-1.416.437l-2.492 2.516a4.469 4.469 0 0 1 2.884 3.284 1.612 1.612 0 0 0 1.12 1.214 5.935 5.935 0 0 1 2.372 1.35l8.651 8.648a5.906 5.906 0 0 1 .071 8.121l-3.609 3.609a5.807 5.807 0 0 1-4.13 1.73 5.666 5.666 0 0 1-4.136-1.8l-8.506-8.5a5.382 5.382 0 0 1-1.506-2.477 1.6 1.6 0 0 0-1.185-1.1 4.838 4.838 0 0 1-2.056-1.087l-.12-.106-.106-.12a4.761 4.761 0 0 1-.943-1.6l-2.531 2.531a1.6 1.6 0 0 0-.425 1.4 11.8 11.8 0 0 1-1.925 8.6 12.069 12.069 0 0 1-9.96 5.343z" class="cls-2" data-name="패스 53" transform="translate(21.386 .364)"/>
        <path id="패스_54" d="M898.62 883.81a10.186 10.186 0 0 1-2.521-.318 1.762 1.762 0 0 1-.808-2.948l2.6-2.6a2.435 2.435 0 0 0 .789-2.455 3.126 3.126 0 0 0-2.115-2.135 2.417 2.417 0 0 0-2.444.732l-2.6 2.605a1.763 1.763 0 0 1-2.948-.8 10.1 10.1 0 0 1 3-10.026 10.283 10.283 0 0 1 10.225-2.343l7.575-7.575-8.108-8.109-3.487-1.483a1.767 1.767 0 0 1-.726-.582l-5.524-7.638a1.764 1.764 0 0 1 .2-2.292l1.495-1.436a1.747 1.747 0 0 1 2.234-.165l7.654 5.456a1.74 1.74 0 0 1 .59.729L905.25 844l8.046 8.019 7.3-7.306a10.06 10.06 0 0 1 2.211-10.078 10.311 10.311 0 0 1 10.141-3.067 1.762 1.762 0 0 1 .793 2.964l-2.667 2.6a2.4 2.4 0 0 0-.724 2.433 3.129 3.129 0 0 0 2.135 2.115 2.424 2.424 0 0 0 2.445-.78l2.61-2.612a1.762 1.762 0 0 1 2.949.808 10.3 10.3 0 0 1-3.038 10.124 10.163 10.163 0 0 1-10.186 2.245l-7.224 7.3.5.5.515-.515a2.9 2.9 0 0 1 4.1 4.1l-.076.076a4.236 4.236 0 0 1 4.823.661l8.606 8.6a4.183 4.183 0 0 1 .026 5.754l-3.564 3.565a3.838 3.838 0 0 1-3 1.227 3.9 3.9 0 0 1-2.809-1.256l-8.551-8.55a3.87 3.87 0 0 1-1.228-2.782 4.051 4.051 0 0 1 .494-2.021l-.03.029a2.9 2.9 0 0 1-4.1-4.1l.848-.8-.565-.565-7.571 7.572a10.174 10.174 0 0 1-2.242 10.188 10.36 10.36 0 0 1-7.597 3.362zm-1.509-2.189a8.321 8.321 0 0 0 9.364-10.858 1.741 1.741 0 0 1 .408-1.812l7.915-7.916a1.757 1.757 0 0 1 2.478 0l.989.99a1.754 1.754 0 0 1-.036 2.515l-1.047.987a.9.9 0 0 0 .063 1.229.887.887 0 0 0 1.165-.044l5.306-5.306a.853.853 0 0 0-1.206-1.206l-1.962 1.963-2.156-2.157a1.756 1.756 0 0 1-.007-2.473l7.567-7.647a1.748 1.748 0 0 1 1.817-.415 8.319 8.319 0 0 0 10.855-9.364l-2.231 2.231a4.493 4.493 0 0 1-4.417 1.323 5.118 5.118 0 0 1-3.6-3.56 4.486 4.486 0 0 1 1.26-4.429l2.292-2.235a8.163 8.163 0 0 0-7.612 2.579 8.047 8.047 0 0 0-1.729 8.188 1.742 1.742 0 0 1-.406 1.817l-7.65 7.65a1.758 1.758 0 0 1-2.478 0l-8.318-8.319a1.75 1.75 0 0 1-.37-.546l-1.511-3.5-7.387-5.266-1.136 1.092 5.328 7.364 3.5 1.514a1.718 1.718 0 0 1 .545.369l8.318 8.318a1.752 1.752 0 0 1 0 2.48l-7.912 7.923a1.734 1.734 0 0 1-1.8.412 8.261 8.261 0 0 0-8.344 1.843 8.1 8.1 0 0 0-2.527 7.515l2.235-2.234a4.489 4.489 0 0 1 4.429-1.26 5.117 5.117 0 0 1 3.56 3.6 4.5 4.5 0 0 1-1.333 4.427zm29.913-17.121a1.99 1.99 0 0 0-1.419.569l-3.536 3.536a2.072 2.072 0 0 0-.628 1.511 1.862 1.862 0 0 0 .6 1.346l8.6 8.6a1.892 1.892 0 0 0 1.372.628 1.923 1.923 0 0 0 1.513-.628l3.536-3.536a2.11 2.11 0 0 0 0-2.885l-8.577-8.577a2.155 2.155 0 0 0-1.461-.564zm-6.368-19.62z" class="cls-1" data-name="패스 54" transform="translate(21.843 .822)"/>
    </g>
</svg>
