<svg xmlns="http://www.w3.org/2000/svg" width="345.474" height="161.813" viewBox="0 0 345.474 161.813">
    <defs>
        <style>
            .cls-1{fill:#06f}
        </style>
    </defs>
    <g id="그룹_103" data-name="그룹 103" transform="translate(-106 -157)">
        <g id="그룹_102" data-name="그룹 102" transform="translate(257.083 273.301)">
            <path id="패스_136" d="M324.472 339.192h-13.381l-2.615 10.4h-11.07l14.05-45.251h13.016l14.049 45.251h-11.434zM322.4 330.8l-.973-3.832c-1.216-4.5-2.372-9.914-3.588-14.536h-.239c-1.095 4.745-2.311 10.036-3.467 14.536l-.972 3.832z" data-name="패스 136" transform="translate(-297.406 -304.341)"/>
            <path id="패스_137" d="M355.508 304.341h10.886v17.881h.182l12.833-17.881h11.921l-13.685 18.125 16.239 27.126h-11.92l-10.644-18.551-4.926 6.691v11.86h-10.886z" data-name="패스 137" transform="translate(-309.646 -304.341)"/>
            <path id="패스_138" d="M410.065 304.341h28.707v9h-17.82v8.393H436.1v9.123h-15.148v9.61h18.489v9.123h-29.376z" data-name="패스 138" transform="translate(-321.14 -304.341)"/>
            <path id="패스_139" d="M476.256 304.341h10.887v45.251h-10.887z" class="cls-1" data-name="패스 139" transform="translate(-335.084 -304.341)"/>
            <path id="패스_140" d="M511.059 313.343h-12.226v-9h35.4v9h-12.288v36.249h-10.886z" class="cls-1" data-name="패스 140" transform="translate(-339.841 -304.341)"/>
        </g>
        <path id="패스_141" d="M152.51 248.445L106 189.013v58.918l46.5 56.207 62.214-75.353v90.028h32.7V157h-23.433z" data-name="패스 141"/>
    </g>
</svg>
