<svg xmlns="http://www.w3.org/2000/svg" width="224" height="224" viewBox="0 0 224 224">
    <defs>
        <style>
            .cls-1{fill:#fff}.cls-2{fill:#707070}.cls-3{fill:none}
        </style>
    </defs>
    <g id="그룹_116" data-name="그룹 116" transform="translate(-360 -1836)">
        <g id="그룹_113" data-name="그룹 113" transform="translate(404 1897)">
            <path id="패스_155" d="M931.074 798.269H811.993a8 8 0 0 1-7.993-7.992v-69.531a8 8 0 0 1 7.993-7.993h119.081a8 8 0 0 1 7.993 7.993v69.531a8 8 0 0 1-7.993 7.992zm-119.081-82.318a4.8 4.8 0 0 0-4.8 4.795v69.531a4.8 4.8 0 0 0 4.8 4.795h119.081a4.8 4.8 0 0 0 4.8-4.795v-69.531a4.8 4.8 0 0 0-4.8-4.795z" class="cls-1" data-name="패스 155" transform="translate(-804 -712.753)"/>
            <g id="그룹_109" data-name="그룹 109" transform="translate(41.559 82.319)">
                <path id="패스_156" d="M867.589 783.56v-6.744a1.023 1.023 0 0 0-1.024-1.024h-12.337a1.023 1.023 0 0 0-1.024 1.024v6.744a1.024 1.024 0 0 1-1.025 1.024h-14.735a1.023 1.023 0 0 0-1.024 1.024v5.145a1.023 1.023 0 0 0 1.024 1.024h46.7a1.023 1.023 0 0 0 1.024-1.024v-5.145a1.023 1.023 0 0 0-1.024-1.024h-15.532a1.024 1.024 0 0 1-1.023-1.024z" class="cls-2" data-name="패스 156" transform="translate(-834.821 -774.193)"/>
                <path id="패스_157" d="M884.545 793.772h-46.7a2.626 2.626 0 0 1-2.622-2.622V786a2.626 2.626 0 0 1 2.622-2.622H852v-6.169a2.626 2.626 0 0 1 2.622-2.622h12.338a2.626 2.626 0 0 1 2.622 2.622v6.169h14.96a2.626 2.626 0 0 1 2.626 2.622v5.145a2.626 2.626 0 0 1-2.623 2.627zm-46.129-3.2h45.554v-4h-14.96a2.626 2.626 0 0 1-2.623-2.622v-6.169H855.2v6.169a2.626 2.626 0 0 1-2.622 2.622h-14.16z" class="cls-1" data-name="패스 157" transform="translate(-835.219 -774.591)"/>
            </g>
            <path id="패스_158" d="M835.453 761.6h-19.975a2.776 2.776 0 0 1-2.773-2.771v-35.146a2.776 2.776 0 0 1 2.773-2.772h19.975a2.775 2.775 0 0 1 2.771 2.772v35.146a2.775 2.775 0 0 1-2.771 2.771zm-19.55-3.2h19.125v-34.3H815.9z" class="cls-1" data-name="패스 158" transform="translate(-801.117 -710.051)"/>
            <path id="패스_159" d="M857.161 760.377H814a1.6 1.6 0 1 1 0-3.2h43.157a1.6 1.6 0 0 1 0 3.2z" class="cls-1" data-name="패스 159" transform="translate(-801.216 -698.038)"/>
            <path id="패스_160" d="M866.751 768.782H814a1.6 1.6 0 1 1 0-3.2h52.747a1.6 1.6 0 1 1 0 3.2z" class="cls-1" data-name="패스 160" transform="translate(-801.216 -695.255)"/>
        </g>
        <path id="사각형_103" d="M0 0h224v224H0z" class="cls-3" data-name="사각형 103" transform="translate(360 1836)"/>
    </g>
</svg>
